<?xml version="1.0" encoding="UTF-8"?>
<svg width="404" height="48.51" version="1.1" viewBox="0 0 10.88 1.306" xml:space="preserve" xmlns="http://www.w3.org/2000/svg">
<style type="text/css">
	.st0{fill:#FFFFFF;}
	.st1{fill:#D20515;}
</style><path d="m1.02 0.9321c0 0.2053-0.09594 0.3147-0.356 0.3147h-0.5971v-1.156h0.5744c0.2685 0 0.361 0.106 0.361 0.3013 0 0.149-0.05638 0.2171-0.2154 0.2567l-0.02987 0.008416 0.02651 0.005049c0.1809 0.04081 0.2365 0.1073 0.2365 0.2701zm-0.6791-0.3577h0.2419c0.09594 0 0.1393-0.04208 0.1393-0.141 0-0.09888-0.03955-0.1456-0.1393-0.1456h-0.2411l-8.364e-4 0.2866zm0.3993 0.3295c0-0.106-0.04208-0.1506-0.141-0.1506h-0.2575v0.2983h0.2575c0.1035-8.364e-4 0.1418-0.04376 0.1418-0.1481l-8.378e-4 4.381e-4zm0.4679-0.03324v-0.7801h0.2882v0.77c0 0.1262 0.05807 0.1755 0.2138 0.1755 0.1557 0 0.2138-0.04797 0.2138-0.1755v-0.77h0.2882v0.7784c0 0.2718-0.1574 0.396-0.502 0.396-0.3446 0-0.5011-0.1224-0.5011-0.3947l-8.364e-4 4.381e-4zm2.356-0.7784v1.155h-0.3509l-0.491-0.8352v0.8348h-0.268v-1.156h0.3509l0.4902 0.8348v-0.8348l0.2689 0.001673zm0.2373 0h0.515c0.4039 0 0.51 0.1658 0.51 0.5765 0 0.3993-0.1161 0.5781-0.51 0.5781h-0.5155l4.381e-4 -1.155zm0.5049 0.9341c0.1683 0 0.2234-0.08794 0.2234-0.3577 0-0.2697-0.0547-0.356-0.2234-0.356h-0.2188v0.7153l0.2188-0.001675zm0.7296-0.9358h0.8083v0.2205h-0.5201v0.2424h0.4321v0.2171h-0.4321v0.2525h0.5319v0.2205h-0.8201zm0.9909 1.111v-0.2272c0.1242 0.04221 0.2546 0.06353 0.3859 0.06312 0.1325 0 0.1906-0.03492 0.1906-0.1262 0-0.07784-0.02482-0.101-0.1309-0.1224l-0.1923-0.03955c-0.2003-0.04208-0.2668-0.1224-0.2668-0.3198 0-0.2525 0.149-0.3627 0.449-0.3627 0.1254-0.001115 0.2499 0.02026 0.3678 0.06312v0.2251c-0.1126-0.04028-0.2313-0.06106-0.3509-0.06143-0.1426 0-0.1906 0.03829-0.1906 0.1262 0 0.07448 0.03324 0.09594 0.1262 0.1161l0.1872 0.03955c0.2171 0.04629 0.2765 0.1191 0.2765 0.3261 0 0.247-0.1523 0.3593-0.4629 0.3593-0.132 0.00262-0.2636-0.01744-0.3888-0.05933zm1.052-1.111h0.2882v0.9341h0.4953v0.2205h-0.7835zm0.9636 0h0.2882v1.155h-0.2882zm1.482 0.4868v0.6278c-0.1291 0.04074-0.2639 0.0609-0.3993 0.05975-0.401 0-0.5891-0.1771-0.5891-0.5979 0-0.4208 0.1889-0.5979 0.5891-0.5979 0.1298-0.002071 0.259 0.01988 0.3808 0.0648v0.2234c-0.1152-0.0394-0.2359-0.06014-0.3577-0.06143-0.2419 0-0.3181 0.09762-0.3181 0.3711 0 0.2849 0.07953 0.3787 0.308 0.3787 0.05038 4.87e-5 0.1007-0.0033 0.1506-0.0101v-0.2584h-0.2138v-0.1986l0.4494-0.001274zm0.9413 0.4258h-0.4511l-0.08121 0.2419h-0.2874l0.4124-1.155h0.3678l0.4107 1.155h-0.2899zm-0.2234-0.7305-0.1683 0.5218h0.3328z" fill="#191917" stroke-width=".3983"/></svg>
