<?xml version="1.0" encoding="UTF-8" standalone="no"?>
<!-- Created with Inkscape (http://www.inkscape.org/) -->

<svg
   xmlns:dc="http://purl.org/dc/elements/1.1/"
   xmlns:cc="http://creativecommons.org/ns#"
   xmlns:rdf="http://www.w3.org/1999/02/22-rdf-syntax-ns#"
   xmlns:svg="http://www.w3.org/2000/svg"
   xmlns="http://www.w3.org/2000/svg"
   xmlns:sodipodi="http://sodipodi.sourceforge.net/DTD/sodipodi-0.dtd"
   xmlns:inkscape="http://www.inkscape.org/namespaces/inkscape"
   id="svg2"
   version="1.1"
   inkscape:version="0.91 r13725"
   xml:space="preserve"
   width="700"
   height="538"
   viewBox="0 0 700 538"
   sodipodi:docname="Logo PSG 1992.svg"><metadata
     id="metadata8"><rdf:RDF><cc:Work
         rdf:about=""><dc:format>image/svg+xml</dc:format><dc:type
           rdf:resource="http://purl.org/dc/dcmitype/StillImage" /><dc:title></dc:title></cc:Work></rdf:RDF></metadata><defs
     id="defs6" /><sodipodi:namedview
     pagecolor="#ffffff"
     bordercolor="#666666"
     borderopacity="1"
     objecttolerance="10"
     gridtolerance="10"
     guidetolerance="10"
     inkscape:pageopacity="0"
     inkscape:pageshadow="2"
     inkscape:window-width="1440"
     inkscape:window-height="788"
     id="namedview4"
     showgrid="false"
     inkscape:zoom="2.3075387"
     inkscape:cx="121.25"
     inkscape:cy="121.25"
     inkscape:window-x="0"
     inkscape:window-y="1"
     inkscape:window-maximized="1"
     inkscape:current-layer="g10" /><g
     id="g10"
     inkscape:groupmode="layer"
     inkscape:label="Logo"
     transform="matrix(1.25,0,0,-1.25,0,538)"><g
       id="g4261"
       transform="matrix(2.9932683,0,0,2.9932683,-9.2627586,-75.045726)"><path
         d="m 190.181,25.0715 -0.002,24.068 -187.08447,0 0.00156,-24.068 187.08491,0"
         style="fill:#231f20;fill-opacity:1;fill-rule:evenodd;stroke:none"
         id="path22"
         inkscape:connector-curvature="0" /><g
         transform="translate(0.134015,-0.04089999)"
         id="g4218"><path
           inkscape:connector-curvature="0"
           id="path24"
           style="fill:#ffffff;fill-opacity:1;fill-rule:evenodd;stroke:none"
           d="m 7.0375,28.247934 0,17.7875 3.2707,0 c 0.6754,0 5.4027,0.4719 5.4027,-5.2601 0,-3.3266 -2.6168,-5.6902 -5.5289,-5.6902 l 0,-6.8372 -3.1445,0 z m 3.1445,9.8583 c 1.4028,-0.0711 2.202,0.8992 2.202,2.7156 0,1.2742 -0.4094,2.3125 -1.6567,2.3125 l -0.5453,0 0,-5.0281" /><path
           inkscape:connector-curvature="0"
           id="path26"
           style="fill:#ffffff;fill-opacity:1;fill-rule:evenodd;stroke:none"
           d="m 21.2488,46.0448 3.6414,-17.7968 -3.1898,0 -0.5906,3.139755 -3.1871,0 -0.5696,-3.139755 -3.2886,0 3.8714,17.7968 3.3129,0 z m -1.764,-6.805405 -0.043,0 -1.0125,-4.934963 2.216,0 -1.1605,4.934963" /><path
           inkscape:connector-curvature="0"
           id="path28"
           style="fill:#ffffff;fill-opacity:1;fill-rule:evenodd;stroke:none"
           d="m 165.666,46.0448 3.642,-17.7968 -3.19,0 -0.591,3.139755 -3.187,0 -0.569,-3.139755 -3.289,0 3.872,17.7968 3.312,0 z m -1.764,-6.805405 -0.042,0 -1.013,-4.934963 2.216,0 -1.161,4.934963" /><path
           inkscape:connector-curvature="0"
           id="path30"
           style="fill:#ffffff;fill-opacity:1;fill-rule:evenodd;stroke:none"
           d="m 72.684,46.0448 3.6406,-17.7968 -3.1894,0 -0.5911,3.139755 -3.1867,0 -0.5695,-3.139755 -3.2887,0 3.8715,17.7968 3.3133,0 z m -1.7645,-6.805405 -0.0425,0 -1.0125,-4.934963 2.2152,0 -1.1602,4.934963" /><path
           inkscape:connector-curvature="0"
           id="path32"
           style="fill:#ffffff;fill-opacity:1;fill-rule:evenodd;stroke:none"
           d="m 25.6387,28.248 0,17.7968 3.1656,0 c 2.0047,0 5.1199,-0.80312 5.1199,-5.096363 0,-1.470268 -0.3633,-3.207977 -1.9254,-4.175582 l 3.8516,-8.524855 -3.3137,0 -3.7113,7.818986 -0.0422,0 0,-7.818986 -3.1445,0 z m 3.1445,10.149904 c 1.1609,0 2.066,0.943093 2.066,2.242172 0,1.131491 -0.4441,2.054173 -1.7246,1.970129 l -0.3414,0 0,-4.212301" /><path
           inkscape:connector-curvature="0"
           id="path34"
           style="fill:#ffffff;fill-opacity:1;fill-rule:evenodd;stroke:none"
           d="m 130.113,28.248 0,17.7968 3.165,0 c 2.005,0 5.12,-0.80312 5.12,-5.096363 0,-1.470268 -0.624,-3.325538 -2.185,-4.293644 l 3.296,-8.406793 -3.313,0 -2.897,7.818986 -0.042,0 0,-7.818986 -3.144,0 z m 3.144,10.149904 c 1.161,0 2.066,0.943093 2.066,2.242172 0,1.131491 -0.444,2.054173 -1.725,1.970129 l -0.341,0 0,-4.212301" /><path
           inkscape:connector-curvature="0"
           id="path36"
           style="fill:#ffffff;fill-opacity:1;fill-rule:evenodd;stroke:none"
           d="m 36.4414,28.248 3.14414,0 0,17.7968 -3.14414,0 0,-17.7968 z" /><path
           inkscape:connector-curvature="0"
           id="path38"
           style="fill:#ffffff;fill-opacity:1;fill-rule:evenodd;stroke:none"
           d="m 48.5105,41.910682 c -1.0492,1.051124 -1.5843,1.503517 -2.4496,1.503517 -0.9703,0 -1.925,-0.709253 -1.925,-1.754312 0,-2.815736 5.018,-3.961209 5.018,-8.261978 0,-3.043522 -2.1562,-5.149909 -5.1105,-5.149909 -0.8868,0 -2.6329,0.421971 -3.35,0.989797 l 0,3.224806 c 0.7379,-0.544913 2.1043,-1.215464 3.0328,-1.215464 1.0133,0 2.1203,0.45095 2.2179,1.584388 0.1168,1.358431 -1.1007,2.418508 -1.9253,3.16916 -1.9254,1.754793 -3.1508,3.218067 -3.1508,5.715906 0,2.702903 1.9851,4.328207 4.6867,4.328207 1.0129,0 1.7898,-0.08385 2.9558,-0.840475 l 0,-3.293643" /><path
           inkscape:connector-curvature="0"
           id="path40"
           style="fill:#ffffff;fill-opacity:1;fill-rule:evenodd;stroke:none"
           d="m 65.1805,41.910682 c -1.0492,1.051124 -1.5848,1.503517 -2.4496,1.503517 -0.9715,0 -1.9254,-0.709253 -1.9254,-1.754312 0,-2.815736 5.0175,-3.961209 5.0175,-8.261978 0,-3.043522 -2.1562,-5.149909 -5.1105,-5.149909 -0.8867,0 -2.6324,0.421971 -3.35,0.989797 l 0,3.224806 c 0.7387,-0.544913 2.1051,-1.215464 3.0332,-1.215464 1.0133,0 2.1211,0.45095 2.2184,1.584388 0.1168,1.358431 -1.1012,2.418508 -1.9254,3.16916 -1.9262,1.754793 -3.1512,3.218067 -3.1512,5.715906 0,2.702903 1.9855,4.328207 4.6867,4.328207 1.0129,0 1.7903,-0.08385 2.9563,-0.840475 l 0,-3.293643" /><path
           inkscape:connector-curvature="0"
           id="path42"
           style="fill:#ffffff;fill-opacity:1;fill-rule:evenodd;stroke:none"
           d="m 77.1781,28.248 3.14375,0 0,17.7968 -3.14375,0 0,-17.7968 z" /><path
           inkscape:connector-curvature="0"
           id="path44"
           style="fill:#ffffff;fill-opacity:1;fill-rule:evenodd;stroke:none"
           d="m 85.1234,46.0448 4.6098,-10.418644 0,10.418644 2.934,0 0,-17.7968 -2.6449,0 -4.3883,9.083747 0,-9.083747 -2.843,0 0,17.7968 2.3324,0" /><path
           inkscape:connector-curvature="0"
           id="path46"
           style="fill:#ffffff;fill-opacity:1;fill-rule:evenodd;stroke:none"
           d="m 178.425,46.0448 4.61,-10.418644 0,10.418644 2.935,0 0,-17.7968 -2.646,0 -4.388,9.083747 0,-9.083747 -2.843,0 0,17.7968 2.332,0" /><path
           inkscape:connector-curvature="0"
           id="path48"
           style="fill:#ffffff;fill-opacity:1;fill-rule:evenodd;stroke:none"
           d="m 101.889,46.0448 0,-3.304427 -2.4898,0 0,-14.492373 -2.8976,0 0,14.492373 -2.7161,0 0,3.304427 8.1035,0" /><path
           inkscape:connector-curvature="0"
           id="path50"
           style="fill:#ffffff;fill-opacity:1;fill-rule:evenodd;stroke:none"
           d="m 101.643,35.73546 3.98477,0 0,2.82188 -3.98477,0 0,-2.82188 z" /><path
           inkscape:connector-curvature="0"
           id="path52"
           style="fill:#ffffff;fill-opacity:1;fill-rule:evenodd;stroke:none"
           d="m 118.91,38.001952 0,-1.069118 c 0,-3.598917 -0.823,-8.684834 -5.108,-8.684834 -4.283,0 -5.876,5.198446 -5.876,8.95557 0,3.914379 1.574,8.84123 6.069,8.84123 2.426,0 4.226,-1.038888 4.901,-3.446049 l -2.742,-1.40146 c -0.642,1.120901 -0.935,1.74267 -2.138,1.74267 -2.132,0.134843 -2.734,-4.049223 -2.734,-5.646558 0,-1.754876 0.305,-5.94085 2.627,-5.94085 1.603,0 1.856,2.588638 1.856,3.956434 l -2.004,0 0,2.692965 5.149,0" /><path
           inkscape:connector-curvature="0"
           id="path54"
           style="fill:#ffffff;fill-opacity:1;fill-rule:evenodd;stroke:none"
           d="m 127.484,46.0448 0,-2.750914 -3.891,0 10e-4,-4.08603 3.89,0 0,-2.750913 -3.89,0 -10e-4,-5.439588 3.891,0 0,-2.769355 -7.035,0 0,17.7968 7.035,0" /><path
           inkscape:connector-curvature="0"
           id="path56"
           style="fill:#ffffff;fill-opacity:1;fill-rule:evenodd;stroke:none"
           d="m 146.481,46.0448 2.648,-10.158388 0.053,0 2.706,10.158388 3.034,0 3.27,-17.7968 -3.462,0 -1.481,10.095834 -0.054,0 -2.624,-10.095834 -3.108,0 -2.421,10.095834 -0.055,0 -2.005,-10.095834 -3.143,0 3.568,17.7968 3.074,0" /><path
           inkscape:connector-curvature="0"
           id="path58"
           style="fill:#ffffff;fill-opacity:1;fill-rule:evenodd;stroke:none"
           d="m 170.563,28.248 3.14453,0 0,17.7968 -3.14453,0 0,-17.7968 z" /></g></g><g
       id="g4250"
       transform="matrix(2.9932683,0,0,2.9932683,-9.2649436,-75.045726)"><g
         id="g4246"><path
           inkscape:connector-curvature="0"
           id="path18"
           style="fill:#1f54a9;fill-opacity:1;fill-rule:evenodd;stroke:none"
           d="m 3.09609,52.5789 55.0246,0 0,110.048 -55.0246,0 0,-110.048 z" /><path
           inkscape:connector-curvature="0"
           id="path60"
           style="fill:#ffffff;fill-opacity:1;fill-rule:evenodd;stroke:none"
           d="m 23.9043,116.897 0.6965,27.491 c 0,0 12.398,1.653 11.7539,-14.313 -0.6098,-15.098 -12.4504,-13.178 -12.4504,-13.178 z m 30.0887,14.182 c 1.0804,24.916 -16.2453,29.485 -28.2606,29.485 -7.2258,0 -10.5344,-0.293 -17.84724,-0.948 l 0,-97.3933 15.62774,0 0,37.7007 c 3.6566,-0.1304 29.232,2.3446 30.4801,31.1556" /></g><g
         id="g4242"><path
           inkscape:connector-curvature="0"
           id="path20"
           style="fill:#ed1c24;fill-opacity:1;fill-rule:evenodd;stroke:none"
           d="m 62.9961,58.7695 55.025,0 0,110.048 -55.025,0 0,-110.048 z" /><path
           inkscape:connector-curvature="0"
           id="path62"
           style="fill:#ffffff;fill-opacity:1;fill-rule:evenodd;stroke:none"
           d="m 108.391,139.8 c -3.386,4.189 -7.523,7.855 -13.0508,7.855 -6.2011,0 -10.6652,-4.955 -10.6652,-10.866 0,-11.868 27.722,-24.697 27.853,-46.8636 0.101,-17.2789 -13.226,-29.8465 -28.2104,-29.0926 -5.6551,0.2852 -10.7449,1.6625 -15.3293,4.875 l -0.557,19.5051 c 3.2382,-4.4945 7.9179,-8.116 13.8496,-8.116 6.4711,0 13.1,3.5074 13.2621,10.5594 0.1703,7.4507 -7.7766,14.9667 -12.4782,20.0727 -9.3425,10.144 -15.5558,15.581 -15.5558,29.715 0,15.291 11.7359,25.012 22.9996,25.183 6.6711,0.102 11.3434,-0.738 17.8824,-4.893 l 0,-17.934" /></g><g
         id="g4238"><path
           inkscape:connector-curvature="0"
           id="path16"
           style="fill:#1f54a9;fill-opacity:1;fill-rule:evenodd;stroke:none"
           d="m 121.4,53.9547 68.7809,0 0,110.048 -68.7809,0 0,-110.048 z" /><path
           inkscape:connector-curvature="0"
           id="path64"
           style="fill:#ffffff;fill-opacity:1;fill-rule:evenodd;stroke:none"
           d="m 185.757,117.68 c 0,0 0.855,-3.141 1,-10.15 0.393,-18.9956 -5.203,-48.8421 -28.187,-49.3773 -23.182,-0.539 -33.866,28.9828 -33.546,50.8013 0.373,25.479 10.849,52.258 34.182,52.258 13.135,0 18.769,-6.459 24.689,-17.106 l -12.591,-9.667 c -2.438,4.363 -5.88,10.298 -11.492,10.298 -13.582,0 -17.298,-20.624 -18.046,-30.37 -1.045,-13.615 3.941,-39.0979 15.086,-39.0979 10.1,0 13.91,13.1559 13.91,25.3739 l -14.967,-0.59 0,17.627 29.962,0" /></g></g></g></svg>